<?xml version="1.0" encoding="UTF-8" standalone="no"?>
<!-- Created with Inkscape (http://www.inkscape.org/) -->

<svg
   xmlns:dc="http://purl.org/dc/elements/1.1/"
   xmlns:cc="http://creativecommons.org/ns#"
   xmlns:rdf="http://www.w3.org/1999/02/22-rdf-syntax-ns#"
   xmlns:svg="http://www.w3.org/2000/svg"
   xmlns="http://www.w3.org/2000/svg"
   xmlns:sodipodi="http://sodipodi.sourceforge.net/DTD/sodipodi-0.dtd"
   xmlns:inkscape="http://www.inkscape.org/namespaces/inkscape"
   width="765"
   height="990"
   id="svg2"
   version="1.1"
   inkscape:version="0.48.2 r9819"
   sodipodi:docname="New document 1">
  <defs
     id="defs4" />
  <sodipodi:namedview
     id="base"
     pagecolor="#ffffff"
     bordercolor="#666666"
     borderopacity="1.0"
     inkscape:pageopacity="0.0"
     inkscape:pageshadow="2"
     inkscape:zoom="1.9070707"
     inkscape:cx="280.51831"
     inkscape:cy="809.31412"
     inkscape:document-units="in"
     inkscape:current-layer="layer1"
     showgrid="true"
     inkscape:snap-global="true"
     inkscape:window-width="2046"
     inkscape:window-height="1131"
     inkscape:window-x="0"
     inkscape:window-y="19"
     inkscape:window-maximized="0">
    <inkscape:grid
       type="xygrid"
       id="grid2985"
       empspacing="5"
       visible="true"
       enabled="true"
       snapvisiblegridlinesonly="true"
       units="in"
       spacingx="0.5in"
       spacingy="0.5in"
       dotted="false" />
  </sodipodi:namedview>
  <metadata
     id="metadata7">
    <rdf:RDF>
      <cc:Work
         rdf:about="">
        <dc:format>image/svg+xml</dc:format>
        <dc:type
           rdf:resource="http://purl.org/dc/dcmitype/StillImage" />
        <dc:title></dc:title>
      </cc:Work>
    </rdf:RDF>
  </metadata>
  <g
     inkscape:groupmode="layer"
     id="layer2"
     inkscape:label="Guides"
     style="display:none"
     sodipodi:insensitive="true">
    <path
       transform="translate(0,-62.362183)"
       style="fill:none;stroke:#000000;stroke-width:1px;stroke-linecap:butt;stroke-linejoin:miter;stroke-opacity:1"
       d="m 360,152.36218 -90,90 90,90 z"
       id="path2993"
       inkscape:connector-curvature="0" />
    <path
       sodipodi:type="arc"
       style="fill:none;stroke:#000000;stroke-width:0.2;stroke-miterlimit:4;stroke-opacity:1;stroke-dasharray:none"
       id="path2995"
       sodipodi:cx="517.5"
       sodipodi:cy="22.5"
       sodipodi:rx="22.5"
       sodipodi:ry="22.5"
       d="m 540,22.5 a 22.5,22.5 0 1 1 -45,0 22.5,22.5 0 1 1 45,0 z"
       transform="matrix(0.49778761,0,0,0.49778761,67.39491,168.79978)" />
    <g
       transform="matrix(-1,0,0,1,720,-62.36218)"
       id="g3011">
      <path
         style="fill:none;stroke:#000000;stroke-width:1px;stroke-linecap:butt;stroke-linejoin:miter;stroke-opacity:1"
         d="m 540,152.36218 -90,90 90,90 z"
         id="path3013"
         inkscape:connector-curvature="0" />
      <path
         sodipodi:type="arc"
         style="fill:none;stroke:#000000;stroke-width:0.2;stroke-miterlimit:4;stroke-opacity:1;stroke-dasharray:none"
         id="path3015"
         sodipodi:cx="517.5"
         sodipodi:cy="22.5"
         sodipodi:rx="22.5"
         sodipodi:ry="22.5"
         d="m 540,22.5 a 22.5,22.5 0 1 1 -45,0 22.5,22.5 0 1 1 45,0 z"
         transform="matrix(0.49778761,0,0,0.49778761,247.39491,231.16196)" />
    </g>
    <path
       style="fill:none;stroke:#000000;stroke-width:1px;stroke-linecap:butt;stroke-linejoin:miter;stroke-opacity:1"
       d="M 360,90 270,0 180,90 z"
       id="path3067"
       inkscape:connector-curvature="0" />
    <path
       style="fill:none;stroke:#000000;stroke-width:0.19508292;stroke-miterlimit:4;stroke-opacity:1"
       d="m 267.41071,65.71621 c -8.38617,0 -19.91317,-2.72532 -19.91317,-10.70246 0,-7.97714 11.30379,-10.70246 19.68996,-10.70246 m 5.75893,0 c 8.38617,0 19.55603,2.72532 19.55603,10.70246 0,7.97714 -11.43772,10.70246 -19.82389,10.70246"
       id="path3069"
       inkscape:connector-curvature="0"
       sodipodi:nodetypes="czcczc" />
    <g
       style="display:inline"
       id="g3001"
       transform="matrix(-1,0,0,1,1080,-62.36218)">
      <path
         style="fill:none;stroke:#000000;stroke-width:1px;stroke-linecap:butt;stroke-linejoin:miter;stroke-opacity:1"
         d="m 450,152.36218 90,90 -90,90 z"
         id="path3003"
         inkscape:connector-curvature="0" />
      <path
         style="fill:none;stroke:#000000;stroke-width:0.19508292;stroke-miterlimit:4;stroke-opacity:1"
         d="m 474.28379,244.95147 c 0,8.38617 2.72532,19.91317 10.70246,19.91317 7.97714,0 10.70246,-11.30379 10.70246,-19.68996 m 0,-5.75893 c 0,-8.38617 -2.72532,-19.55603 -10.70246,-19.55603 -7.97714,0 -10.70246,11.43772 -10.70246,19.82389"
         id="rect3008"
         inkscape:connector-curvature="0"
         sodipodi:nodetypes="czcczc" />
    </g>
  </g>
  <g
     inkscape:label="Layer 1"
     inkscape:groupmode="layer"
     id="layer1"
     transform="translate(0,-62.362183)"
     style="display:inline">
    <g
       id="g3096"
       style="fill:none;stroke:#ff0000;stroke-width:0.89999998;stroke-miterlimit:4;stroke-opacity:1;stroke-dasharray:none"
       transform="translate(-180,2.9999999e-6)">
      <path
         sodipodi:nodetypes="ccccccc"
         inkscape:connector-curvature="0"
         id="path2991"
         d="m 270,62.36218 90,90 0,180 -90,90 -90,-90 0,-180 z"
         style="fill:none;stroke:#ff0000;stroke-width:0.89999998;stroke-linecap:butt;stroke-linejoin:miter;stroke-miterlimit:4;stroke-opacity:1;stroke-dasharray:none" />
      <path
         transform="matrix(-0.49778761,0,0,0.49778761,472.60509,231.16196)"
         d="M 540,22.5 C 540,34.926407 529.92641,45 517.5,45 505.07359,45 495,34.926407 495,22.5 495,10.073593 505.07359,0 517.5,0 529.92641,0 540,10.073593 540,22.5 z"
         sodipodi:ry="22.5"
         sodipodi:rx="22.5"
         sodipodi:cy="22.5"
         sodipodi:cx="517.5"
         id="path3015-8"
         style="fill:none;stroke:#ff0000;stroke-width:1.80799997;stroke-miterlimit:4;stroke-opacity:1;stroke-dasharray:none;display:inline"
         sodipodi:type="arc" />
      <path
         sodipodi:type="arc"
         style="fill:none;stroke:#ff0000;stroke-width:1.80799997;stroke-miterlimit:4;stroke-opacity:1;stroke-dasharray:none;display:inline"
         id="path2995-4"
         sodipodi:cx="517.5"
         sodipodi:cy="22.5"
         sodipodi:rx="22.5"
         sodipodi:ry="22.5"
         d="M 540,22.5 C 540,34.926407 529.92641,45 517.5,45 505.07359,45 495,34.926407 495,22.5 495,10.073593 505.07359,0 517.5,0 529.92641,0 540,10.073593 540,22.5 z"
         transform="matrix(0.49778761,0,0,0.49778761,67.39491,231.16196)" />
      <path
         sodipodi:nodetypes="czcczc"
         inkscape:connector-curvature="0"
         id="path3069-3"
         d="m 267.41071,128.07839 c -8.38617,0 -19.91317,-2.72532 -19.91317,-10.70246 0,-7.97714 11.30379,-10.70246 19.68996,-10.70246 m 5.75893,0 c 8.38617,0 19.55603,2.72532 19.55603,10.70246 0,7.97714 -11.43772,10.70246 -19.82389,10.70246"
         style="fill:none;stroke:#ff0000;stroke-width:0.89999998;stroke-miterlimit:4;stroke-opacity:1;stroke-dasharray:none;display:inline" />
      <path
         style="fill:none;stroke:#ff0000;stroke-width:0.89999998;stroke-miterlimit:4;stroke-opacity:1;stroke-dasharray:none;display:inline"
         d="m 267.41071,356.64597 c -8.38617,0 -19.91317,2.72532 -19.91317,10.70246 0,7.97714 11.30379,10.70246 19.68996,10.70246 m 5.75893,0 c 8.38617,0 19.55603,-2.72532 19.55603,-10.70246 0,-7.97714 -11.43772,-10.70246 -19.82389,-10.70246"
         id="path3094"
         inkscape:connector-curvature="0"
         sodipodi:nodetypes="czcczc" />
    </g>
  </g>
</svg>
