<?xml version="1.0" encoding="UTF-8" standalone="no"?>
<!-- Created with Inkscape (http://www.inkscape.org/) -->

<svg
   xmlns:dc="http://purl.org/dc/elements/1.1/"
   xmlns:cc="http://creativecommons.org/ns#"
   xmlns:rdf="http://www.w3.org/1999/02/22-rdf-syntax-ns#"
   xmlns:svg="http://www.w3.org/2000/svg"
   xmlns="http://www.w3.org/2000/svg"
   xmlns:sodipodi="http://sodipodi.sourceforge.net/DTD/sodipodi-0.dtd"
   xmlns:inkscape="http://www.inkscape.org/namespaces/inkscape"
   width="765"
   height="990"
   id="svg2"
   version="1.1"
   inkscape:version="0.48.2 r9819"
   sodipodi:docname="shapes.svg">
  <defs
     id="defs4" />
  <sodipodi:namedview
     id="base"
     pagecolor="#ffffff"
     bordercolor="#666666"
     borderopacity="1.0"
     inkscape:pageopacity="0.0"
     inkscape:pageshadow="2"
     inkscape:zoom="0.67425131"
     inkscape:cx="-27.298018"
     inkscape:cy="511.57798"
     inkscape:document-units="in"
     inkscape:current-layer="layer1"
     showgrid="true"
     inkscape:snap-global="true"
     inkscape:window-width="2046"
     inkscape:window-height="1131"
     inkscape:window-x="0"
     inkscape:window-y="19"
     inkscape:window-maximized="0"
     objecttolerance="20"
     gridtolerance="10"
     showguides="true"
     inkscape:object-paths="true"
     inkscape:snap-intersection-paths="true"
     inkscape:snap-grids="true">
    <inkscape:grid
       type="xygrid"
       id="grid2985"
       empspacing="5"
       visible="true"
       enabled="true"
       snapvisiblegridlinesonly="true"
       units="in"
       spacingx="0.5in"
       spacingy="0.5in"
       dotted="false" />
  </sodipodi:namedview>
  <metadata
     id="metadata7">
    <rdf:RDF>
      <cc:Work
         rdf:about="">
        <dc:format>image/svg+xml</dc:format>
        <dc:type
           rdf:resource="http://purl.org/dc/dcmitype/StillImage" />
        <dc:title></dc:title>
      </cc:Work>
    </rdf:RDF>
  </metadata>
  <g
     inkscape:groupmode="layer"
     id="layer2"
     inkscape:label="Guides"
     style="display:inline">
    <path
       style="fill:none;stroke:#000000;stroke-width:1px;stroke-linecap:butt;stroke-linejoin:miter;stroke-opacity:1"
       d="m -100.01375,67.502459 -90,90.000001 90,90 z"
       id="path2993"
       inkscape:connector-curvature="0" />
    <path
       sodipodi:type="arc"
       style="fill:none;stroke:#000000;stroke-width:0.2;stroke-miterlimit:4;stroke-opacity:1;stroke-dasharray:none"
       id="path2995"
       sodipodi:cx="517.5"
       sodipodi:cy="22.5"
       sodipodi:rx="22.5"
       sodipodi:ry="22.5"
       d="m 540,22.5 a 22.5,22.5 0 1 1 -45,0 22.5,22.5 0 1 1 45,0 z"
       transform="matrix(0.49778761,0,0,0.49778761,-392.61884,146.30224)" />
    <g
       transform="matrix(-1,0,0,1,259.98625,-84.859718)"
       id="g3011">
      <path
         style="fill:none;stroke:#000000;stroke-width:1px;stroke-linecap:butt;stroke-linejoin:miter;stroke-opacity:1"
         d="m 540,152.36218 -90,90 90,90 z"
         id="path3013"
         inkscape:connector-curvature="0" />
      <path
         sodipodi:type="arc"
         style="fill:none;stroke:#000000;stroke-width:0.2;stroke-miterlimit:4;stroke-opacity:1;stroke-dasharray:none"
         id="path3015"
         sodipodi:cx="517.5"
         sodipodi:cy="22.5"
         sodipodi:rx="22.5"
         sodipodi:ry="22.5"
         d="M 540,22.5 C 540,34.926407 529.92641,45 517.5,45 505.07359,45 495,34.926407 495,22.5 495,10.073593 505.07359,0 517.5,0 529.92641,0 540,10.073593 540,22.5 z"
         transform="matrix(0.49778761,0,0,0.49778761,247.39491,231.16196)" />
    </g>
    <path
       style="fill:none;stroke:#000000;stroke-width:1px;stroke-linecap:butt;stroke-linejoin:miter;stroke-opacity:1"
       d="m -10.01375,67.50246 -90,-90 -90,90 z"
       id="path3067"
       inkscape:connector-curvature="0" />
    <path
       style="fill:none;stroke:#000000;stroke-width:0.19508292;stroke-miterlimit:4;stroke-opacity:1"
       d="m -102.60304,43.21867 c -8.38617,0 -19.91317,-2.72532 -19.91317,-10.70246 0,-7.97714 11.30379,-10.70246 19.68996,-10.70246 m 5.75893,0 c 8.38617,0 19.55603,2.72532 19.55603,10.70246 0,7.97714 -11.43772,10.70246 -19.82389,10.70246"
       id="path3069"
       inkscape:connector-curvature="0"
       sodipodi:nodetypes="czcczc" />
    <g
       style="display:inline"
       id="g3001"
       transform="matrix(-1,0,0,1,439.98625,-84.85972)">
      <path
         style="fill:none;stroke:#000000;stroke-width:1px;stroke-linecap:butt;stroke-linejoin:miter;stroke-opacity:1"
         d="m 450,152.36218 90,90 -90,90 z"
         id="path3003"
         inkscape:connector-curvature="0" />
      <path
         style="fill:none;stroke:#000000;stroke-width:0.19508292;stroke-miterlimit:4;stroke-opacity:1"
         d="m 474.28379,244.95147 c 0,8.38617 2.72532,19.91317 10.70246,19.91317 7.97714,0 10.70246,-11.30379 10.70246,-19.68996 m 0,-5.75893 c 0,-8.38617 -2.72532,-19.55603 -10.70246,-19.55603 -7.97714,0 -10.70246,11.43772 -10.70246,19.82389"
         id="rect3008"
         inkscape:connector-curvature="0"
         sodipodi:nodetypes="czcczc" />
    </g>
    <path
       inkscape:connector-curvature="0"
       id="path3903"
       d="m -280.01375,67.50246 90,90 90,-90 z"
       style="fill:none;stroke:#000000;stroke-width:1px;stroke-linecap:butt;stroke-linejoin:miter;stroke-opacity:1" />
    <path
       transform="matrix(0,-0.49778761,0.49778761,0,-201.21397,360.10755)"
       d="m 540,22.5 a 22.5,22.5 0 1 1 -45,0 22.5,22.5 0 1 1 45,0 z"
       sodipodi:ry="22.5"
       sodipodi:rx="22.5"
       sodipodi:cy="22.5"
       sodipodi:cx="517.5"
       id="path3905"
       style="fill:none;stroke:#000000;stroke-width:0.2;stroke-miterlimit:4;stroke-opacity:1;stroke-dasharray:none"
       sodipodi:type="arc" />
    <g
       id="g3907"
       transform="matrix(0,1,1,0,-432.37593,-292.49754)">
      <path
         inkscape:connector-curvature="0"
         id="path3909"
         d="m 540,152.36218 -90,90 90,90 z"
         style="fill:none;stroke:#000000;stroke-width:1px;stroke-linecap:butt;stroke-linejoin:miter;stroke-opacity:1" />
      <path
         transform="matrix(0.49778761,0,0,0.49778761,247.39491,231.16196)"
         d="M 540,22.5 C 540,34.926407 529.92641,45 517.5,45 505.07359,45 495,34.926407 495,22.5 495,10.073593 505.07359,0 517.5,0 529.92641,0 540,10.073593 540,22.5 z"
         sodipodi:ry="22.5"
         sodipodi:rx="22.5"
         sodipodi:cy="22.5"
         sodipodi:cx="517.5"
         id="path3911"
         style="fill:none;stroke:#000000;stroke-width:0.2;stroke-miterlimit:4;stroke-opacity:1;stroke-dasharray:none"
         sodipodi:type="arc" />
    </g>
  </g>
  <g
     inkscape:label="Layer 1"
     inkscape:groupmode="layer"
     id="layer1"
     transform="translate(0,-62.362183)"
     style="display:inline">
    <g
       id="g3096"
       style="fill:none;stroke:#ff0000;stroke-width:0.89999998;stroke-miterlimit:4;stroke-opacity:1;stroke-dasharray:none"
       transform="translate(-180,2.9999999e-6)">
      <path
         sodipodi:nodetypes="ccccccc"
         inkscape:connector-curvature="0"
         id="path2991"
         d="m 270,62.36218 90,90 0,180 -90,90 -90,-90 0,-180 z"
         style="fill:none;stroke:#ff0000;stroke-width:0.89999998;stroke-linecap:butt;stroke-linejoin:miter;stroke-miterlimit:4;stroke-opacity:1;stroke-dasharray:none" />
      <path
         transform="matrix(-0.49778761,0,0,0.49778761,472.60509,231.16196)"
         d="m 540,22.5 a 22.5,22.5 0 1 1 -45,0 22.5,22.5 0 1 1 45,0 z"
         sodipodi:ry="22.5"
         sodipodi:rx="22.5"
         sodipodi:cy="22.5"
         sodipodi:cx="517.5"
         id="path3015-8"
         style="fill:none;stroke:#ff0000;stroke-width:1.80799997;stroke-miterlimit:4;stroke-opacity:1;stroke-dasharray:none;display:inline"
         sodipodi:type="arc" />
      <path
         sodipodi:type="arc"
         style="fill:none;stroke:#ff0000;stroke-width:1.80799997;stroke-miterlimit:4;stroke-opacity:1;stroke-dasharray:none;display:inline"
         id="path2995-4"
         sodipodi:cx="517.5"
         sodipodi:cy="22.5"
         sodipodi:rx="22.5"
         sodipodi:ry="22.5"
         d="m 540,22.5 a 22.5,22.5 0 1 1 -45,0 22.5,22.5 0 1 1 45,0 z"
         transform="matrix(0.49778761,0,0,0.49778761,67.39491,231.16196)" />
      <path
         sodipodi:nodetypes="czcczc"
         inkscape:connector-curvature="0"
         id="path3069-3"
         d="m 267.41071,128.07839 c -8.38617,0 -19.91317,-2.72532 -19.91317,-10.70246 0,-7.97714 11.30379,-10.70246 19.68996,-10.70246 m 5.75893,0 c 8.38617,0 19.55603,2.72532 19.55603,10.70246 0,7.97714 -11.43772,10.70246 -19.82389,10.70246"
         style="fill:none;stroke:#ff0000;stroke-width:0.89999998;stroke-miterlimit:4;stroke-opacity:1;stroke-dasharray:none;display:inline" />
      <path
         style="fill:none;stroke:#ff0000;stroke-width:0.89999998;stroke-miterlimit:4;stroke-opacity:1;stroke-dasharray:none;display:inline"
         d="m 267.41071,356.64597 c -8.38617,0 -19.91317,2.72532 -19.91317,10.70246 0,7.97714 11.30379,10.70246 19.68996,10.70246 m 5.75893,0 c 8.38617,0 19.55603,-2.72532 19.55603,-10.70246 0,-7.97714 -11.43772,-10.70246 -19.82389,-10.70246"
         id="path3094"
         inkscape:connector-curvature="0"
         sodipodi:nodetypes="czcczc" />
    </g>
    <g
       id="g3952"
       style="fill:none;stroke:#ff0000;stroke-width:0.89999998;stroke-miterlimit:4;stroke-opacity:1;stroke-dasharray:none">
      <path
         sodipodi:type="arc"
         style="fill:none;stroke:#ff0000;stroke-width:1.80799997;stroke-miterlimit:4;stroke-opacity:1;stroke-dasharray:none;display:inline"
         id="path3915"
         sodipodi:cx="517.5"
         sodipodi:cy="22.5"
         sodipodi:rx="22.5"
         sodipodi:ry="22.5"
         d="m 540,22.5 a 22.5,22.5 0 1 1 -45,0 22.5,22.5 0 1 1 45,0 z"
         transform="matrix(0.49778761,0,0,0.49778761,67.39491,231.16196)" />
      <path
         transform="matrix(-0.49778761,0,0,0.49778761,472.60509,231.16196)"
         d="m 540,22.5 a 22.5,22.5 0 1 1 -45,0 22.5,22.5 0 1 1 45,0 z"
         sodipodi:ry="22.5"
         sodipodi:rx="22.5"
         sodipodi:cy="22.5"
         sodipodi:cx="517.5"
         id="path3921"
         style="fill:none;stroke:#ff0000;stroke-width:1.80799997;stroke-miterlimit:4;stroke-opacity:1;stroke-dasharray:none"
         sodipodi:type="arc" />
      <path
         transform="matrix(0,-0.49778761,0.49778761,0,258.79978,444.96727)"
         d="m 540,22.5 a 22.5,22.5 0 1 1 -45,0 22.5,22.5 0 1 1 45,0 z"
         sodipodi:ry="22.5"
         sodipodi:rx="22.5"
         sodipodi:cy="22.5"
         sodipodi:cx="517.5"
         id="path3925"
         style="fill:none;stroke:#ff0000;stroke-width:1.80799997;stroke-miterlimit:4;stroke-opacity:1;stroke-dasharray:none;display:inline"
         sodipodi:type="arc" />
      <path
         sodipodi:type="arc"
         style="fill:none;stroke:#ff0000;stroke-width:1.80799997;stroke-miterlimit:4;stroke-opacity:1;stroke-dasharray:none"
         id="path3931"
         sodipodi:cx="517.5"
         sodipodi:cy="22.5"
         sodipodi:rx="22.5"
         sodipodi:ry="22.5"
         d="m 540,22.5 a 22.5,22.5 0 1 1 -45,0 22.5,22.5 0 1 1 45,0 z"
         transform="matrix(0,0.49778761,0.49778761,0,258.79978,39.75709)" />
      <rect
         transform="translate(0,62.362183)"
         y="90"
         x="180"
         height="180"
         width="180"
         id="rect3948"
         style="fill:none;stroke:#ff0000;stroke-width:0.89999998;stroke-miterlimit:4;stroke-opacity:1;stroke-dasharray:none" />
    </g>
    <g
       id="g3985"
       style="fill:none;stroke:#ff0000;stroke-width:0.89999998;stroke-miterlimit:4;stroke-opacity:1;stroke-dasharray:none">
      <path
         id="path3067-1"
         transform="translate(0,62.362183)"
         d="m 450,90 -90,90 90,90 90,-90 -90,-90 z"
         style="fill:none;stroke:#ff0000;stroke-width:0.89999998;stroke-linecap:butt;stroke-linejoin:miter;stroke-miterlimit:4;stroke-opacity:1;stroke-dasharray:none;display:inline"
         inkscape:connector-curvature="0" />
      <path
         sodipodi:nodetypes="czcczc"
         inkscape:connector-curvature="0"
         id="path3069-4"
         d="m 447.41071,218.07839 c -8.38617,0 -19.91317,-2.72532 -19.91317,-10.70246 0,-7.97714 11.30379,-10.70246 19.68996,-10.70246 m 5.75893,0 c 8.38617,0 19.55603,2.72532 19.55603,10.70246 0,7.97714 -11.43772,10.70246 -19.82389,10.70246"
         style="fill:none;stroke:#ff0000;stroke-width:0.89999998;stroke-miterlimit:4;stroke-opacity:1;stroke-dasharray:none;display:inline" />
      <path
         style="fill:none;stroke:#ff0000;stroke-width:0.89999998;stroke-miterlimit:4;stroke-opacity:1;stroke-dasharray:none;display:inline"
         d="m 447.41071,266.64597 c -8.38617,0 -19.91317,2.72532 -19.91317,10.70246 0,7.97714 11.30379,10.70246 19.68996,10.70246 m 5.75893,0 c 8.38617,0 19.55603,-2.72532 19.55603,-10.70246 0,-7.97714 -11.43772,-10.70246 -19.82389,-10.70246"
         id="path3982"
         inkscape:connector-curvature="0"
         sodipodi:nodetypes="czcczc" />
    </g>
    <g
       id="g5293"
       style="stroke-width:0.90000000000000002;stroke-miterlimit:4;stroke-dasharray:none;stroke:#ff0000;stroke-opacity:1;fill:none">
      <path
         sodipodi:type="arc"
         style="display:inline;fill:none;stroke:#ff0000;stroke-width:1.80800000000000005;stroke-miterlimit:4;stroke-opacity:1;stroke-dasharray:none"
         id="path5216"
         sodipodi:cx="517.5"
         sodipodi:cy="22.5"
         sodipodi:rx="22.5"
         sodipodi:ry="22.5"
         d="m 540,22.5 a 22.5,22.5 0 1 1 -45,0 22.5,22.5 0 1 1 45,0 z"
         transform="matrix(0,-0.49778761,0.49778761,0,258.79978,624.96727)" />
      <path
         transform="matrix(0,-0.49778761,0.49778761,0,258.79978,624.96727)"
         d="m 540,22.5 a 22.5,22.5 0 1 1 -45,0 22.5,22.5 0 1 1 45,0 z"
         sodipodi:ry="22.5"
         sodipodi:rx="22.5"
         sodipodi:cy="22.5"
         sodipodi:cx="517.5"
         id="path5220"
         style="display:inline;fill:none;stroke:#ff0000;stroke-width:1.80800000000000005;stroke-miterlimit:4;stroke-opacity:1;stroke-dasharray:none"
         sodipodi:type="arc" />
      <path
         transform="matrix(-0.47342415,-0.15382483,0.15382483,-0.47342415,427.01139,519.02925)"
         d="m 540,22.5 a 22.5,22.5 0 1 1 -45,0 22.5,22.5 0 1 1 45,0 z"
         sodipodi:ry="22.5"
         sodipodi:rx="22.5"
         sodipodi:cy="22.5"
         sodipodi:cx="517.5"
         id="path3911-2"
         style="display:inline;fill:none;stroke:#ff0000;stroke-width:1.80800000000000005;stroke-miterlimit:4;stroke-opacity:1;stroke-dasharray:none"
         sodipodi:type="arc" />
      <path
         transform="matrix(-0.29259221,0.40271864,-0.40271864,-0.29259221,378.41049,325.78482)"
         d="m 540,22.5 a 22.5,22.5 0 1 1 -45,0 22.5,22.5 0 1 1 45,0 z"
         sodipodi:ry="22.5"
         sodipodi:rx="22.5"
         sodipodi:cy="22.5"
         sodipodi:cx="517.5"
         id="path3911-4"
         style="display:inline;fill:none;stroke:#ff0000;stroke-width:1.80800000000000005;stroke-miterlimit:4;stroke-opacity:1;stroke-dasharray:none"
         sodipodi:type="arc" />
      <path
         transform="matrix(0.29259222,0.40271863,-0.40271863,0.29259222,179.71184,312.61817)"
         d="m 540,22.5 a 22.5,22.5 0 1 1 -45,0 22.5,22.5 0 1 1 45,0 z"
         sodipodi:ry="22.5"
         sodipodi:rx="22.5"
         sodipodi:cy="22.5"
         sodipodi:cx="517.5"
         id="path3911-0"
         style="display:inline;fill:none;stroke:#ff0000;stroke-width:1.80800000999999999;stroke-miterlimit:4;stroke-opacity:1;stroke-dasharray:none"
         sodipodi:type="arc" />
      <path
         transform="matrix(0.47342415,-0.15382483,0.15382483,0.47342415,106.0665,497.72517)"
         d="m 540,22.5 a 22.5,22.5 0 1 1 -45,0 22.5,22.5 0 1 1 45,0 z"
         sodipodi:ry="22.5"
         sodipodi:rx="22.5"
         sodipodi:cy="22.5"
         sodipodi:cx="517.5"
         id="path3911-7"
         style="display:inline;fill:none;stroke:#ff0000;stroke-width:1.80800000000000005;stroke-miterlimit:4;stroke-opacity:1;stroke-dasharray:none"
         sodipodi:type="arc" />
      <path
         inkscape:connector-curvature="0"
         d="m 360,332.36218 55.62305,171.19016 0,0 m 0,-0.65391 L 270,608.69977 l 0,0 m 0,0 -145.62306,-105.80134 0,0 m 0,0.65393 L 180,332.36218 l 0,0 m 0,0 180,0 0,0"
         style="fill:none;stroke:#ff0000;stroke-width:0.90000000000000002;stroke-linecap:butt;stroke-linejoin:miter;stroke-opacity:1;display:inline;stroke-miterlimit:4;stroke-dasharray:none"
         id="path4095" />
    </g>
    <g
       id="g5429"
       style="fill:none;stroke:#ff0000;stroke-width:0.89999998;stroke-miterlimit:4;stroke-opacity:1;stroke-dasharray:none"
       transform="translate(0.02101878,-2.9515776)">
      <path
         transform="matrix(0,-0.49778761,0.49778761,0,168.77876,919.11907)"
         d="M 540,22.5 C 540,34.926407 529.92641,45 517.5,45 505.07359,45 495,34.926407 495,22.5 495,10.073593 505.07359,0 517.5,0 529.92641,0 540,10.073593 540,22.5 z"
         sodipodi:ry="22.5"
         sodipodi:rx="22.5"
         sodipodi:cy="22.5"
         sodipodi:cx="517.5"
         id="path3911-27"
         style="fill:none;stroke:#ff0000;stroke-width:1.80799997;stroke-miterlimit:4;stroke-opacity:1;stroke-dasharray:none;display:inline"
         sodipodi:type="arc" />
      <path
         transform="matrix(0.43109671,-0.2488938,0.2488938,0.43109671,55.975426,841.05916)"
         d="M 540,22.5 C 540,34.926407 529.92641,45 517.5,45 505.07359,45 495,34.926407 495,22.5 495,10.073593 505.07359,0 517.5,0 529.92641,0 540,10.073593 540,22.5 z"
         sodipodi:ry="22.5"
         sodipodi:rx="22.5"
         sodipodi:cy="22.5"
         sodipodi:cx="517.5"
         id="path3911-27-2"
         style="fill:none;stroke:#ff0000;stroke-width:1.80800009;stroke-miterlimit:4;stroke-opacity:1;stroke-dasharray:none;display:inline"
         sodipodi:type="arc" />
      <path
         transform="matrix(0.43109671,0.2488938,-0.2488938,0.43109671,67.17565,704.33865)"
         d="M 540,22.5 C 540,34.926407 529.92641,45 517.5,45 505.07359,45 495,34.926407 495,22.5 495,10.073593 505.07359,0 517.5,0 529.92641,0 540,10.073593 540,22.5 z"
         sodipodi:ry="22.5"
         sodipodi:rx="22.5"
         sodipodi:cy="22.5"
         sodipodi:cx="517.5"
         id="path3911-27-26"
         style="fill:none;stroke:#ff0000;stroke-width:1.80800009;stroke-miterlimit:4;stroke-opacity:1;stroke-dasharray:none;display:inline"
         sodipodi:type="arc" />
      <path
         transform="matrix(0,0.49778761,-0.49778761,0,191.20022,645.64167)"
         d="M 540,22.5 C 540,34.926407 529.92641,45 517.5,45 505.07359,45 495,34.926407 495,22.5 495,10.073593 505.07359,0 517.5,0 529.92641,0 540,10.073593 540,22.5 z"
         sodipodi:ry="22.5"
         sodipodi:rx="22.5"
         sodipodi:cy="22.5"
         sodipodi:cx="517.5"
         id="path3911-27-1"
         style="fill:none;stroke:#ff0000;stroke-width:1.80799997;stroke-miterlimit:4;stroke-opacity:1;stroke-dasharray:none;display:inline"
         sodipodi:type="arc" />
      <path
         transform="matrix(-0.43109671,0.2488938,-0.2488938,-0.43109671,304.00355,723.7016)"
         d="M 540,22.5 C 540,34.926407 529.92641,45 517.5,45 505.07359,45 495,34.926407 495,22.5 495,10.073593 505.07359,0 517.5,0 529.92641,0 540,10.073593 540,22.5 z"
         sodipodi:ry="22.5"
         sodipodi:rx="22.5"
         sodipodi:cy="22.5"
         sodipodi:cx="517.5"
         id="path3911-27-0"
         style="fill:none;stroke:#ff0000;stroke-width:1.80800009;stroke-miterlimit:4;stroke-opacity:1;stroke-dasharray:none;display:inline"
         sodipodi:type="arc" />
      <path
         transform="matrix(-0.43109671,-0.2488938,0.2488938,-0.43109671,292.80333,860.4221)"
         d="M 540,22.5 C 540,34.926407 529.92641,45 517.5,45 505.07359,45 495,34.926407 495,22.5 495,10.073593 505.07359,0 517.5,0 529.92641,0 540,10.073593 540,22.5 z"
         sodipodi:ry="22.5"
         sodipodi:rx="22.5"
         sodipodi:cy="22.5"
         sodipodi:cx="517.5"
         id="path3911-27-6"
         style="fill:none;stroke:#ff0000;stroke-width:1.80800009;stroke-miterlimit:4;stroke-opacity:1;stroke-dasharray:none;display:inline"
         sodipodi:type="arc" />
      <path
         inkscape:connector-curvature="0"
         d="M 0,782.36218 90,626.4776 M 90,938.24676 0,782.36218 m 270,155.88458 -180,0 m 269.97898,-155.84817 -90,155.88458 m 0,-311.76916 90,155.88458 m -270,-155.88458 180,0"
         style="fill:none;stroke:#ff0000;stroke-width:0.89999998;stroke-linecap:butt;stroke-linejoin:miter;stroke-miterlimit:4;stroke-opacity:1;stroke-dasharray:none"
         id="path5316" />
    </g>
  </g>
</svg>
